<?xml version="1.0" standalone="no"?>
<!DOCTYPE svg PUBLIC "-//W3C//DTD SVG 20010904//EN"
 "http://www.w3.org/TR/2001/REC-SVG-20010904/DTD/svg10.dtd">
<svg version="1.0" xmlns="http://www.w3.org/2000/svg"
 width="260.000000pt" height="260.000000pt" viewBox="0 0 260.000000 260.000000"
 preserveAspectRatio="xMidYMid meet">
<metadata>
Created by potrace 1.14, written by Peter Selinger 2001-2017
</metadata>
<g transform="translate(0.000000,260.000000) scale(0.100000,-0.100000)"
fill="#000000" stroke="none">
<path d="M0 1300 l0 -1300 1300 0 1300 0 0 1300 0 1300 -1300 0 -1300 0 0
-1300z m1367 1103 c63 -30 159 -170 239 -352 24 -56 44 -105 44 -110 0 -4 -17
-15 -37 -22 l-38 -15 -77 156 c-77 152 -135 242 -171 264 -75 45 -332 -515
-481 -1045 l-16 -56 -40 10 c-22 6 -40 15 -40 20 0 20 75 271 122 407 127 367
292 680 391 740 39 24 59 25 104 3z m458 -633 c168 -12 340 -35 421 -56 86
-22 180 -68 199 -98 24 -37 15 -93 -27 -164 -35 -60 -288 -322 -311 -322 -7 0
-23 14 -36 31 l-23 31 118 111 c120 114 204 216 204 247 0 43 -78 72 -269 99
-207 30 -391 41 -674 41 l-257 0 0 38 c0 21 3 42 7 45 10 11 490 8 648 -3z
m-1065 -64 l0 -43 -82 -7 c-99 -7 -298 -47 -351 -69 -49 -21 -55 -41 -27 -93
55 -106 486 -477 782 -676 l97 -65 -21 -34 c-11 -19 -22 -36 -24 -38 -5 -6
-214 139 -344 238 -379 290 -600 525 -600 636 0 86 118 142 375 180 49 7 114
13 143 14 l52 1 0 -44z m1066 -203 c68 -159 203 -630 240 -838 24 -139 25
-319 1 -363 -48 -88 -155 -76 -392 43 -82 41 -160 83 -173 93 l-22 17 25 37
24 36 113 -64 c184 -105 311 -150 343 -124 60 50 -50 599 -205 1030 -23 63
-44 122 -46 130 -4 10 5 20 23 27 45 18 52 15 69 -24z m-82 -612 l28 -29 -87
-69 c-399 -314 -837 -563 -992 -563 -100 0 -128 59 -120 247 5 120 39 327 57
346 4 5 24 5 45 1 35 -6 37 -8 32 -38 -3 -17 -15 -83 -26 -148 -11 -64 -21
-157 -23 -208 -3 -110 6 -123 75 -109 130 29 583 299 867 517 58 45 108 81
111 82 3 0 18 -13 33 -29z"/>
</g>
</svg>
